<svg width="30" height="32" viewBox="0 0 30 32" fill="none" xmlns="http://www.w3.org/2000/svg">
<mask id="mask0_33_2404" style="mask-type:alpha" maskUnits="userSpaceOnUse" x="0" y="0" width="31" height="32">
<path d="M2.75356 30C3.25356 30 15.3081 21.9231 15.3081 21.9231C15.3081 21.9231 26.9454 30 27.5 30C28.0546 30 27.9999 11.5385 28 11C28.0001 10.4615 15.8625 2 15.3081 2C14.7536 2 2.00003 10.6154 2.00005 11.1538C2.00007 11.6923 2.25356 30 2.75356 30Z" stroke="white" stroke-width="4"/>
<path d="M16.6328 7C16.4642 7.30843 15.9546 7.56071 15.6996 7.77198C15.3787 8.03786 15.0023 8.21077 14.6971 8.49469C14.1702 8.98469 13.5754 9.36477 13.0181 9.80459C12.0113 10.5991 10.892 10.64 9.75026 10.9338C9.48943 11.0009 9.21867 11.0069 8.95239 10.9872C8.64476 10.9644 8.39261 10.722 8.09207 10.6957C7.78379 10.6686 7.58313 10.5334 7.30114 10.8065C7.14177 10.9609 7.08103 11.2297 6.95424 11.4184C6.7646 11.7006 6.52514 11.9229 6.3437 12.215C6.07056 12.6547 5.88211 13.2192 5.83375 13.763C5.76483 14.5382 5.85891 15.3437 5.88926 16.1159C5.91811 16.8503 6.04933 17.9909 5.80253 18.6783C5.48636 19.5589 5.20586 20.5866 5.20586 21.5444C5.20586 21.9061 5.14342 22.2327 5.14342 22.5957C5.14342 22.7599 5.14342 22.9242 5.14342 23.0884C5.14342 23.2946 4.88335 23.999 5.06363 23.7577C5.65802 22.9624 6.51071 22.4417 7.25951 21.8812C8.16336 21.2046 9.09343 20.6134 10.0139 19.9758C10.8954 19.3653 11.7357 18.6519 12.6954 18.2101C13.3983 17.8866 14.2358 18.013 14.9746 18.013C15.7826 18.013 16.6377 18.2859 17.3959 18.6043C18.188 18.937 19.0236 19.1653 19.6785 19.828C20.371 20.5287 20.9992 21.3524 21.7253 22.0043C22.2379 22.4647 22.8029 23.1938 23.4043 23.4785C23.5494 23.5472 23.6231 23.6726 23.7512 23.7618C23.8954 23.8623 23.7756 22.9388 23.765 22.801C23.6377 21.143 23.5733 19.4767 23.4702 17.8159C23.3756 16.2941 23.5624 14.7748 23.2516 13.2826C23.0543 12.3351 22.5488 11.2864 22.0791 10.4903C21.6328 9.73392 21.3404 9.29244 20.6395 8.86836C19.9356 8.4425 19.2635 8.1654 18.506 7.90338C18.3542 7.85088 17.0519 7.25058 16.9588 7.4599C16.8761 7.646 16.9477 8.10925 16.9588 8.29758C17.0016 9.01933 17.2256 9.64362 17.4965 10.285C18.0855 11.6793 18.7437 12.8538 19.5814 14.0382C20.1678 14.8672 20.8115 15.6009 21.4547 16.3623C21.8807 16.8666 22.3635 17.3869 22.6931 17.9884C23.2531 19.0103 23.5649 20.1642 24.0495 21.2324C24.4712 22.1619 25 22.9263 25 24" stroke="#FF5731" stroke-width="9" stroke-linecap="round"/>
</mask>
<g mask="url(#mask0_33_2404)">
<rect x="-2.00012" y="-5" width="36" height="40" fill="url(#paint0_linear_33_2404)"/>
</g>
<defs>
<linearGradient id="paint0_linear_33_2404" x1="15.9999" y1="-5" x2="15.9999" y2="35" gradientUnits="userSpaceOnUse">
<stop stop-color="#FF603C"/>
<stop offset="1" stop-color="#FF8C70"/>
</linearGradient>
</defs>
</svg>
